<svg width="256" height="256" viewBox="0 0 256 256" fill="none" xmlns="http://www.w3.org/2000/svg">
<rect width="256" height="256" rx="128" fill="#FAFAFA"/>
<path fill-rule="evenodd" clip-rule="evenodd" d="M129.613 44.0332C83.1753 44.0332 45.5303 81.6783 45.5303 128.116C45.5303 174.553 83.1753 212.198 129.613 212.198C176.05 212.198 213.695 174.553 213.695 128.116C213.695 81.6783 176.05 44.0332 129.613 44.0332ZM31.4971 128.116C31.4971 73.9279 75.425 30 129.613 30C183.801 30 227.729 73.9279 227.729 128.116C227.729 182.304 183.801 226.231 129.613 226.231C75.425 226.231 31.4971 182.304 31.4971 128.116Z" fill="#16A180"/>
<path fill-rule="evenodd" clip-rule="evenodd" d="M93.8698 125.902C88.5365 125.597 83.0914 127.146 75.647 132.373L70.3115 124.455C78.9195 118.411 86.3963 115.849 94.3965 116.307C102.066 116.746 109.699 119.966 118.471 124.04L114.572 132.787C105.645 128.641 99.5334 126.226 93.8698 125.902Z" fill="#16A180"/>
<path fill-rule="evenodd" clip-rule="evenodd" d="M74.1681 111.923C69.6438 116.358 66.3337 121.636 63.8323 128.591L57.2296 126.217C60.042 118.397 63.8838 112.179 69.2559 106.912C74.5921 101.681 81.2989 97.5244 89.6428 93.6291L92.611 99.987C84.6627 103.698 78.7284 107.452 74.1681 111.923Z" fill="#16A180"/>
<path fill-rule="evenodd" clip-rule="evenodd" d="M163.198 125.902C168.531 125.597 173.976 127.146 181.42 132.373L186.756 124.455C178.148 118.411 170.671 115.849 162.671 116.307C155.001 116.746 147.368 119.966 138.596 124.04L142.496 132.787C151.422 128.641 157.534 126.226 163.198 125.902Z" fill="#16A180"/>
<path fill-rule="evenodd" clip-rule="evenodd" d="M182.831 111.902C187.355 116.337 190.665 121.615 193.167 128.57L199.769 126.196C196.957 118.376 193.115 112.158 187.743 106.891C182.407 101.66 175.7 97.5037 167.356 93.6083L164.388 99.9663C172.336 103.677 178.271 107.431 182.831 111.902Z" fill="#16A180"/>
<path fill-rule="evenodd" clip-rule="evenodd" d="M128.01 193.165C107.126 193.052 87.248 184.106 63.124 167.749L68.4251 160.174C92.06 176.2 110.02 183.869 128.061 183.967C146.137 184.065 165.194 176.57 191.021 160.102L196.101 167.821C169.817 184.582 148.86 193.278 128.01 193.165Z" fill="#16A180"/>
<path fill-rule="evenodd" clip-rule="evenodd" d="M128.509 157.226C108.469 157.253 88.9485 153.573 64.5615 146.277L67.1822 137.126C91.0862 144.278 109.666 147.717 128.496 147.691C147.348 147.666 166.721 144.168 192.222 137.1L194.664 146.303C168.794 153.473 148.527 157.199 128.509 157.226Z" fill="#16A180"/>
<path fill-rule="evenodd" clip-rule="evenodd" d="M128.509 176.634C108.469 176.66 88.9485 173.111 64.5615 166.075L67.1822 157.251C91.0862 164.148 109.666 167.464 128.496 167.439C147.348 167.415 166.721 164.042 192.222 157.226L194.664 166.1C168.794 173.014 148.527 176.608 128.509 176.634Z" fill="#16A180"/>
<path d="M75.0059 182.554C67.44 195.659 55.0691 199.472 45.8719 194.162C36.6747 188.852 34.1341 176.429 41.7 163.325C49.2659 150.22 81.0083 133.304 81.0083 133.304C81.0083 133.304 82.5718 169.449 75.0059 182.554Z" fill="white"/>
<path fill-rule="evenodd" clip-rule="evenodd" d="M85.6819 133.102L81.0086 133.304L78.8086 129.176L85.3611 125.684L85.6819 133.102ZM76.4645 141.258C73.6882 142.897 70.3023 144.97 66.77 147.303C62.4158 150.18 57.9062 153.409 54.061 156.672C50.1393 160 47.2336 163.096 45.7513 165.664C38.9767 177.398 42.0291 186.542 48.211 190.111C54.4879 193.735 64.2477 191.833 70.9551 180.215C72.429 177.662 73.6381 173.6 74.5285 168.522C75.4011 163.546 75.9012 158.005 76.1732 152.772C76.3947 148.509 76.4623 144.506 76.4645 141.258ZM83.7434 170.138C82.799 175.523 81.3663 180.893 79.0572 184.893C70.6328 199.484 55.6508 205.209 43.5333 198.213C31.3208 191.163 29.292 175.461 37.6492 160.986C39.9499 157.001 43.8492 153.068 48.0072 149.539C52.2416 145.945 57.0862 142.488 61.6133 139.497C66.1519 136.499 70.4388 133.926 73.5875 132.104C75.164 131.191 76.4602 130.464 77.3662 129.963C77.8193 129.713 78.1752 129.518 78.4201 129.386C78.5425 129.319 78.6373 129.268 78.7026 129.233C78.7353 129.215 78.7606 129.202 78.7783 129.192L78.8074 129.177C78.8081 129.176 78.8086 129.176 81.0086 133.304C85.6819 133.102 85.682 133.103 85.682 133.104L85.6834 133.137C85.6842 133.157 85.6854 133.186 85.6869 133.223C85.6899 133.298 85.694 133.406 85.699 133.546C85.7091 133.826 85.7226 134.233 85.7369 134.754C85.7657 135.795 85.7978 137.289 85.8123 139.12C85.8411 142.777 85.7996 147.802 85.516 153.258C85.2332 158.699 84.7055 164.652 83.7434 170.138Z" fill="#16A180"/>
<path d="M181.992 182.533C189.558 195.638 201.929 199.452 211.126 194.142C220.323 188.832 222.864 176.409 215.298 163.304C207.732 150.2 175.99 133.284 175.99 133.284C175.99 133.284 174.426 169.429 181.992 182.533Z" fill="white"/>
<path fill-rule="evenodd" clip-rule="evenodd" d="M171.317 133.082L175.99 133.284L178.19 129.156L171.638 125.664L171.317 133.082ZM180.535 141.238C183.311 142.877 186.697 144.949 190.229 147.283C194.583 150.159 199.093 153.388 202.938 156.652C206.86 159.98 209.765 163.076 211.248 165.643C218.022 177.377 214.97 186.522 208.788 190.091C202.511 193.715 192.751 191.812 186.044 180.195C184.57 177.642 183.361 173.579 182.471 168.502C181.598 163.526 181.098 157.984 180.826 152.752C180.604 148.489 180.537 144.485 180.535 141.238ZM173.256 170.118C174.2 175.503 175.633 180.873 177.942 184.872C186.366 199.464 201.348 205.189 213.466 198.193C225.678 191.142 227.707 175.441 219.35 160.965C217.049 156.981 213.15 153.048 208.992 149.519C204.757 145.925 199.913 142.467 195.386 139.477C190.847 136.479 186.56 133.905 183.411 132.083C181.835 131.171 180.539 130.444 179.633 129.943C179.18 129.692 178.824 129.498 178.579 129.365C178.456 129.299 178.362 129.248 178.296 129.212C178.264 129.195 178.238 129.181 178.221 129.172L178.192 129.156C178.191 129.156 178.19 129.156 175.99 133.284C171.317 133.082 171.317 133.082 171.317 133.083L171.316 133.116C171.315 133.136 171.314 133.165 171.312 133.203C171.309 133.277 171.305 133.385 171.3 133.525C171.29 133.805 171.276 134.213 171.262 134.733C171.233 135.774 171.201 137.268 171.187 139.099C171.158 142.756 171.199 147.782 171.483 153.237C171.766 158.679 172.294 164.631 173.256 170.118Z" fill="#16A180"/>
<path d="M93.3043 180.806L81.0938 169.446L132.284 174.179L175.256 169.446V174.179L169.386 179.386L123.596 188.853L93.3043 180.806Z" fill="#16A180"/>
</svg>
